<svg width="512" height="512" viewBox="0 0 512 512" xmlns="http://www.w3.org/2000/svg">
  <defs>
    <linearGradient id="bgH" x1="0" y1="0" x2="0" y2="1">
      <stop offset="0" stop-color="#0e1320"/>
      <stop offset="1" stop-color="#080b12"/>
    </linearGradient>
  </defs>
  <rect width="512" height="512" rx="112" fill="url(#bgH)"/>
  <!-- spectrum bars: tall left peak + shorter right peak, valley centered -->
  <g>
    <rect x="72"  y="358" width="18" height="34"  rx="5" fill="#7c3aed"/>
    <rect x="97"  y="322" width="18" height="70"  rx="5" fill="#7c3aed"/>
    <rect x="122" y="270" width="18" height="122" rx="5" fill="#1d4ed8"/>
    <rect x="147" y="200" width="18" height="192" rx="5" fill="#16a34a"/>
    <rect x="172" y="140" width="18" height="252" rx="5" fill="#d97706"/>
    <rect x="197" y="202" width="18" height="190" rx="5" fill="#0d9488"/>
    <rect x="222" y="262" width="18" height="130" rx="5" fill="#1d4ed8"/>
    <rect x="247" y="300" width="18" height="92"  rx="5" fill="#6d28d9"/>
    <rect x="272" y="268" width="18" height="124" rx="5" fill="#1d4ed8"/>
    <rect x="297" y="224" width="18" height="168" rx="5" fill="#16a34a"/>
    <rect x="322" y="210" width="18" height="182" rx="5" fill="#d97706"/>
    <rect x="347" y="250" width="18" height="142" rx="5" fill="#0d9488"/>
    <rect x="372" y="298" width="18" height="94"  rx="5" fill="#6d28d9"/>
    <rect x="397" y="330" width="18" height="62"  rx="5" fill="#7c3aed"/>
    <rect x="422" y="358" width="18" height="34"  rx="5" fill="#7c3aed"/>
  </g>
  <!-- baseline -->
  <rect x="64" y="392" width="384" height="12" rx="6" fill="#2a3244"/>
</svg>
